<?xml version="1.0" encoding="UTF-8"?>
<svg width="171px" height="171px" viewBox="0 0 171 171" version="1.1" xmlns="http://www.w3.org/2000/svg" xmlns:xlink="http://www.w3.org/1999/xlink">
    <!-- Generator: Sketch 53.1 (72631) - https://sketchapp.com -->
    <title>Combined Shape</title>
    <desc>Created with Sketch.</desc>
    <g id="Page-1" stroke="none" stroke-width="1" fill="none" fill-rule="evenodd">
        <g id="Artboard" fill="#FFFFFF" fill-rule="nonzero">
            <path d="M29,0 L142,0 C158.016258,-2.94213882e-15 171,12.9837423 171,29 L171,142 C171,158.016258 158.016258,171 142,171 L29,171 C12.9837423,171 1.96142588e-15,158.016258 0,142 L0,29 C-1.96142588e-15,12.9837423 12.9837423,2.94213882e-15 29,0 Z M138.495056,93.0843995 C133.731775,93.0843995 129.500928,95.3932495 126.854297,98.9468995 L115.783594,94.2261474 C116.547485,91.5378052 116.956421,88.7006105 116.956421,85.7701783 C116.956421,83.0654785 116.608008,80.4433839 115.953711,77.942334 L127.314758,73.3753418 C129.978564,76.5936646 134.001672,78.6514283 138.495056,78.6514283 C146.493835,78.6514283 153,72.1419922 153,64.1464844 C153,56.1485229 146.493835,49.6415405 138.495056,49.6415405 C130.497095,49.6415405 123.99093,56.1485229 123.99093,64.1464844 C123.99093,64.8400391 124.043274,65.5237793 124.137329,66.1903443 L113.017554,70.6608276 C110.319397,65.8509277 106.377258,61.8278198 101.629517,59.0347901 L106.366626,47.9330078 C106.856531,47.9820801 107.350525,48.0090698 107.853516,48.0090698 C115.851477,48.0090698 122.35846,41.5029052 122.35846,33.5049439 C122.35846,25.5061646 115.851477,19 107.853516,19 C99.8555541,19 93.3485717,25.5061646 93.3485717,33.5049439 C93.3485717,38.199524 95.5944459,42.3821166 99.0679442,45.032837 L94.4118041,55.9416016 C91.7242798,55.1793457 88.8870849,54.7695923 85.955017,54.7695923 C83.2552246,54.7695923 80.6314941,55.120459 78.1304442,55.7714844 L73.6656861,44.6639771 C76.933899,41.947827 78.913147,37.8674682 78.913147,33.5049439 C78.913147,25.5061646 72.4061646,19 64.4114746,19 C56.4126953,19 49.9065307,25.5061646 49.9065307,33.5049439 C49.9065307,41.5029052 56.4126953,48.0090698 64.4114746,48.0090698 C65.1123901,48.0090698 65.8026733,47.9534545 66.4864135,47.8577637 L70.848938,58.7076417 C66.039038,61.4066161 62.0159302,65.347937 59.2212645,70.0956786 L47.977173,65.3005005 C47.995166,65.0068848 48.0090698,64.7091797 48.0090698,64.4114746 C48.0090698,56.4126953 41.5029052,49.9065307 33.5049439,49.9065307 C25.5061646,49.9065307 19,56.4126953 19,64.4114746 C19,72.4086183 25.5061646,78.9156005 33.5049439,78.9156005 C38.408899,78.9156005 42.7509766,76.4652589 45.3763427,72.7275879 L56.1305298,77.3133912 C55.3658203,80.004187 54.9577026,82.8389283 54.9577026,85.7701783 C54.9577026,88.4732422 55.305298,91.095337 55.957959,93.5947511 L44.5355714,98.1879151 C41.8742188,95.0685547 37.9173583,93.0843995 33.5049439,93.0843995 C25.5061646,93.0843995 19,99.5913817 19,107.588525 C19,115.587305 25.5061646,122.093469 33.5049439,122.093469 C41.5029052,122.093469 48.0090698,115.587305 48.0090698,107.588525 C48.0090698,106.819727 47.9460938,106.063196 47.830774,105.325476 L58.8965698,100.876257 C61.5914551,105.689429 65.5335937,109.711719 70.2813354,112.503931 L65.3692017,124.022827 C65.0494141,124.001563 64.7304442,123.988477 64.4114746,123.988477 C56.4126953,123.988477 49.9065307,130.497095 49.9065307,138.495056 C49.9065307,146.493835 56.4126953,153 64.4114746,153 C72.4061646,153 78.913147,146.493835 78.913147,138.495056 C78.913147,133.690064 76.5625854,129.314453 72.7864746,126.647376 L77.499048,115.597937 C80.1898437,116.359375 83.0270385,116.769946 85.955017,116.769946 C88.658899,116.769946 91.2818114,116.419897 93.7812255,115.767236 L98.3743895,127.194531 C95.1470703,129.855884 93.0843995,133.884717 93.0843995,138.385461 C93.0843995,146.383423 99.5913817,152.889587 107.588525,152.889587 C115.587305,152.889587 122.093469,146.383423 122.093469,138.385461 C122.093469,130.3875 115.587305,123.880518 107.588525,123.880518 C106.900696,123.880518 106.225952,123.933679 105.563477,124.024463 L101.061914,112.831079 C105.875085,110.13374 109.897376,106.191602 112.692041,101.444678 L124.053906,106.28811 C124.014648,106.717493 123.99093,107.149329 123.99093,107.588525 C123.99093,115.587305 130.497095,122.093469 138.495056,122.093469 C146.493835,122.093469 153,115.587305 153,107.588525 C153,99.5913817 146.493835,93.0843995 138.495056,93.0843995 Z M82.2083496,101.404602 C81.4820801,102.666577 80.1612182,103.370764 78.8027344,103.370764 C78.138623,103.370764 77.4655151,103.199829 76.8447511,102.844055 C71.1948974,99.5856568 67.676416,93.5145996 67.6641479,86.9945312 C67.6592408,84.827173 69.4127564,83.0654785 71.5817505,83.0605714 L71.5899291,83.0605714 C73.754834,83.0605714 75.5108033,84.814087 75.5157104,86.9781738 C75.5230714,90.7060302 77.5358521,94.1787109 80.7688965,96.0426392 C82.6475463,97.1263184 83.2912109,99.525952 82.2083496,101.404602 Z M83.2617676,76.8431152 C82.377649,77.0811158 81.5246094,77.4319824 80.7320923,77.8948974 C80.1080566,78.2588501 79.4308594,78.4281495 78.7577514,78.4281495 C77.4082642,78.4281495 76.0914916,77.7296875 75.3635865,76.4791626 C74.2725463,74.6054199 74.9055787,72.2025145 76.7793214,71.1106568 C79.5674439,69.4880005 82.7522338,68.6292358 85.9918214,68.6292358 C87.5907592,68.6292358 89.1798828,68.8394286 90.714209,69.2467285 C92.2477173,69.6523926 93.7256105,70.2600709 95.104541,71.0534057 C96.9872802,72.1321777 97.6366699,74.5318114 96.5546264,76.413733 C95.4774902,78.2923828 93.0762207,78.9417724 91.1975709,77.8630005 C89.622351,76.9608887 87.8222168,76.4807983 85.9918214,76.4807983 C85.0659911,76.4807983 84.147522,76.6042969 83.2617676,76.8431152 Z M104.320312,86.9847168 C104.320312,93.474524 100.815735,99.5537598 95.1699707,102.825244 C94.5532958,103.18429 93.8752807,103.354407 93.2070801,103.354407 C91.8518677,103.354407 90.5350952,102.652673 89.8080078,101.396423 C88.7194213,99.5202271 89.3606323,97.1181395 91.234375,96.0311889 C94.4641479,94.1607177 96.46875,90.6847656 96.46875,86.9577271 C96.4556641,84.7903686 98.2018189,83.0033203 100.368359,82.9902344 L100.394531,82.9902344 C102.550439,82.9902344 104.307227,84.7151245 104.320312,86.8743041 L104.320312,86.9847168 Z" id="Combined-Shape"></path>
        </g>
    </g>
</svg>